<svg id="Layer_1" data-name="Layer 1" xmlns="http://www.w3.org/2000/svg" viewBox="0 0 790.91 738.66"><defs><style>.cls-1{fill:#fff;}</style></defs><title>Scoopthepoopswhite</title><path class="cls-1" d="M566.62,528.8c5.1-15.69,18.8-42.18,12.12-58.65-11.64-28.57-57.63-35.61-86.63-35.35,20.82-25.3,37.35-71.81,15.76-96.45l33-28.39c5.07-4.36-3.08-20.14-18.83-40.8l20.17-17.34L514.08,219,493.9,236.36c-9.28-9.06-22.8-20.86-31.15-24.41-2.82-1.21-5.05-1.47-6.34-.36l-19.55,16.78c-4.95-13.26-17-33.64-45.89-43.11-86.35-9.76-19-132.32-19-132.32S234.27,193.7,265.16,256.62c-59,39.38-111,78.18-107.49,134.69.79,13.1,22.65,36.84,29.2,47.74-2.59-1.14-22.39-13.68-23-13.95A73.09,73.09,0,0,0,65,453.58c-11.73,21.14-3.78,70.88,95.88,110,12.57,12.53-77.69-31.33-107.75-21.92s-33.75,16.56-43.63,34A72.94,72.94,0,0,0,37,675.14c9.67,5.5,175.55,77.65,359.81,61,74.26-6.77,151.52-31.2,222.66-86a73.08,73.08,0,0,0,13.23-102.39C619.43,530.7,586.57,530.25,566.62,528.8Z"/><path class="cls-1" d="M736.32,0l-7.48,7.09C717.59,17.71,692.11,42,692.55,65.72L658.39,95.07l28.17,32.8L721.35,98c22.16,3.14,46.76-16.43,59-26.19l10.55-8.24ZM713.6,74.74c-8.34-9.73-1.2-23.66,9.69-36.83l28.6,33.29C736.68,81,722.74,85.37,713.6,74.74Z"/><rect class="cls-1" x="522.52" y="160.49" width="155.63" height="25.94" transform="translate(31.82 432.84) rotate(-40.64)"/></svg>